<svg width="42" height="30" viewBox="0 0 42 30" fill="none" xmlns="http://www.w3.org/2000/svg">
<path d="M19.6251 10.669C19.1126 10.1564 19.1126 9.32542 19.6251 8.81284C20.1378 8.30025 20.9688 8.30025 21.4813 8.81284L25.8125 13.1439L30.1435 8.81284C30.656 8.30025 31.487 8.30025 31.9997 8.81284C32.5121 9.32532 32.5121 10.1564 31.9997 10.669L27.6685 15L31.9997 19.3311C32.5121 19.8436 32.5121 20.6747 31.9997 21.1872C31.487 21.6998 30.656 21.6998 30.1435 21.1872L25.8125 16.8562L21.4813 21.1872C20.9688 21.6998 20.1378 21.6998 19.6253 21.1872C19.1126 20.6746 19.1126 19.8436 19.6253 19.331L23.9563 15.0001L19.6251 10.669Z" fill="black"/>
<path fill-rule="evenodd" clip-rule="evenodd" d="M14.2123 1.66266L0.875 15L14.2123 28.3373C15.1969 29.3219 16.5323 29.875 17.9247 29.875H35.875C38.7745 29.875 41.125 27.5245 41.125 24.625V5.375C41.125 2.47549 38.7745 0.125 35.875 0.125H17.9247C16.5323 0.125 15.1969 0.678177 14.2123 1.66266ZM35.875 27.6H17.9247C17.1356 27.6 16.3789 27.2865 15.8209 26.7287L4.09238 15L15.8209 3.27135C16.3789 2.71347 17.1356 2.39998 17.9247 2.39998H35.875C37.518 2.39998 38.8499 3.73192 38.8499 5.375V24.625C38.8499 26.2681 37.518 27.6 35.875 27.6Z" fill="black"/>
</svg>
