<svg width="92" height="96" viewBox="0 0 92 96" fill="none" xmlns="http://www.w3.org/2000/svg">
<path d="M44.0159 23.7095C44.0043 26.0325 43.0935 28.2559 41.4838 29.8905C40.5699 30.8185 39.473 31.514 38.2812 31.9395M49.706 24.3216C49.7682 11.8402 36.5323 2.06622 36.5323 2.06622C36.5323 2.06622 23.1997 11.7077 23.1374 24.1891C23.1191 27.8672 24.5011 31.4019 26.9794 34.0151C29.4577 36.6283 32.8295 38.1049 36.3527 38.1224C39.876 38.14 43.2619 36.6964 45.7662 34.108C48.2704 31.5196 49.6877 27.9996 49.706 24.3216Z" stroke="#B4BA00" stroke-width="4" stroke-linecap="round" stroke-linejoin="round"/>
<path d="M82.977 37.4223C83.1186 40.014 82.2506 42.5544 80.5639 44.4847C79.6064 45.5806 78.4292 46.4293 77.1283 46.9831M89.3641 37.7263C88.6031 23.8011 73.1902 13.7803 73.1902 13.7803C73.1902 13.7803 58.961 25.421 59.722 39.3462C59.9463 43.4498 61.7229 47.3003 64.6609 50.05C67.599 52.7998 71.4579 54.2224 75.3887 54.0075C79.3195 53.7927 83 51.9573 85.6209 48.9037C88.2418 45.8502 89.5883 41.8299 89.3641 37.7263Z" stroke="#B4BA00" stroke-width="4" stroke-linecap="round" stroke-linejoin="round"/>
<path d="M11.1207 37.8054C11.1207 37.8054 20.0875 44.4269 20.0454 52.8825C20.033 55.3743 19.0728 57.7589 17.3763 59.5125C15.6797 61.266 13.3859 62.244 10.999 62.2321C8.6122 62.2202 6.32794 61.2199 4.64896 59.4496C2.96999 57.6792 2.03374 55.2846 2.04616 52.7928C2.08831 44.3371 11.1207 37.8054 11.1207 37.8054Z" stroke="#B4BA00" stroke-width="4" stroke-linecap="round" stroke-linejoin="round"/>
<path d="M53.6298 74.6839C53.6298 77.75 52.4422 80.6905 50.3283 82.8586C49.1283 84.0895 47.6851 85.0146 46.1149 85.584M61.1439 75.4542C61.1439 58.9801 43.61 46.1669 43.61 46.1669C43.61 46.1669 26.0762 58.9801 26.0762 75.4542C26.0762 80.3089 27.9235 84.9651 31.2117 88.3979C34.5 91.8307 38.96 93.7574 43.6102 93.7574C48.2605 93.7574 52.72 91.8297 56.0083 88.3969C59.2965 84.9641 61.1439 80.3089 61.1439 75.4542Z" stroke="#B4BA00" stroke-width="4" stroke-linecap="round" stroke-linejoin="round"/>
</svg>
