<svg width="118" height="108" viewBox="0 0 118 108" fill="none" xmlns="http://www.w3.org/2000/svg">
<path d="M64.1221 2.28739C62.6571 0.822777 60.6703 0 58.5987 0C56.5271 0 54.5403 0.822777 53.0753 2.28739L1.14556 54.2093C0.782373 54.5725 0.494277 55.0036 0.297721 55.4781C0.101166 55.9527 0 56.4613 0 56.9749C0 57.4885 0.101166 57.9971 0.297721 58.4716C0.494277 58.9462 0.782373 59.3773 1.14556 59.7405C1.87905 60.474 2.87387 60.8861 3.91118 60.8861C4.42481 60.8861 4.9334 60.7849 5.40793 60.5884C5.88246 60.3918 6.31362 60.1037 6.67681 59.7405L58.5987 7.81083L110.521 59.7405C111.254 60.474 112.249 60.8861 113.286 60.8861C114.323 60.8861 115.318 60.474 116.052 59.7405C116.785 59.007 117.197 58.0122 117.197 56.9749C117.197 55.9376 116.785 54.9428 116.052 54.2093L97.6612 35.8265V10.0999C97.6612 9.06389 97.2496 8.07032 96.5171 7.33776C95.7845 6.6052 94.7909 6.19364 93.7549 6.19364H85.9424C84.9064 6.19364 83.9129 6.6052 83.1803 7.33776C82.4477 8.07032 82.0362 9.06389 82.0362 10.0999V20.2015L64.1221 2.28739Z" fill="#323232"/>
<path d="M58.5986 16.2952L105.474 63.1702V96.0374C105.474 99.1454 104.239 102.126 102.041 104.324C99.8436 106.521 96.8629 107.756 93.7549 107.756H23.4424C20.3344 107.756 17.3537 106.521 15.156 104.324C12.9583 102.126 11.7236 99.1454 11.7236 96.0374V63.1702L58.5986 16.2952Z" fill="#323232"/>
</svg>
