<svg width="97" height="42" viewBox="0 0 97 42" fill="none" xmlns="http://www.w3.org/2000/svg">
<path d="M21.8705 43.75C17.956 43.7492 14.1134 42.698 10.7436 40.706C7.37379 38.7141 4.60025 35.8543 2.7123 32.4252C0.824352 28.996 -0.108831 25.1231 0.0101007 21.2104C0.129032 17.2977 1.29572 13.4886 3.38846 10.1804C5.4812 6.87227 8.42331 4.18628 11.9079 2.40267C15.3924 0.61906 19.2918 -0.19683 23.1991 0.0401168C27.1064 0.277064 30.8786 1.55816 34.1221 3.74978C37.3656 5.94139 39.9616 8.96321 41.6392 12.5H87.4955L96.8705 21.875L87.4955 31.25L81.2455 25L74.9955 31.25L68.7455 25L62.4955 31.25L56.2455 25L49.9955 31.25H41.6392C39.8648 34.9908 37.0652 38.1512 33.5658 40.364C30.0663 42.5767 26.0108 43.7509 21.8705 43.75ZM15.6205 28.125C17.2781 28.125 18.8678 27.4665 20.0399 26.2944C21.212 25.1223 21.8705 23.5326 21.8705 21.875C21.8705 20.2174 21.212 18.6277 20.0399 17.4556C18.8678 16.2835 17.2781 15.625 15.6205 15.625C13.9629 15.625 12.3732 16.2835 11.2011 17.4556C10.029 18.6277 9.37049 20.2174 9.37049 21.875C9.37049 23.5326 10.029 25.1223 11.2011 26.2944C12.3732 27.4665 13.9629 28.125 15.6205 28.125Z" fill="#323232"/>
</svg>
