<svg width="71" height="71" viewBox="0 0 71 71" fill="none" xmlns="http://www.w3.org/2000/svg">
<path d="M36.3333 17.9419L3 51.2752V67.9419L19.6667 67.9418L53 34.6085M36.3333 17.9419L48.286 5.98917L48.2931 5.98208C49.9385 4.33673 50.7626 3.51261 51.7126 3.20393C52.5495 2.93202 53.451 2.93202 54.2878 3.20393C55.2372 3.51239 56.0604 4.33558 57.7034 5.97859L64.9525 13.2277C66.6026 14.8778 67.428 15.7032 67.7371 16.6546C68.009 17.4914 68.0089 18.3929 67.737 19.2297C67.4281 20.1804 66.604 21.0046 64.9563 22.6523L64.9526 22.6558L53 34.6085M36.3333 17.9419L53 34.6085" stroke="black" stroke-width="6" stroke-linecap="round" stroke-linejoin="round"/>
</svg>
