<svg width="48" height="50" viewBox="0 0 48 50" fill="none" xmlns="http://www.w3.org/2000/svg">
<path d="M2.69922 41.4328V8.9884C2.69922 6.31305 2.69922 4.97389 3.26221 4.18233C3.75358 3.49146 4.51095 3.03786 5.35177 2.92942C6.3148 2.80521 7.49595 3.43514 9.85486 4.69323L40.2715 20.9155L40.2826 20.9204C42.8895 22.3107 44.1935 23.0062 44.6213 23.9332C44.9944 24.7418 44.9944 25.6753 44.6213 26.4839C44.1929 27.4122 42.8858 28.1105 40.2715 29.5048L9.85486 45.727C7.49426 46.986 6.31514 47.6135 5.35177 47.4893C4.51095 47.3808 3.75358 46.9273 3.26221 46.2364C2.69922 45.4449 2.69922 44.1082 2.69922 41.4328Z" stroke="#004DB1" stroke-width="5" stroke-linecap="round" stroke-linejoin="round"/>
</svg>
