<svg version="1.2" xmlns="http://www.w3.org/2000/svg" viewBox="0 0 48 50" width="48" height="50">
	<title>play</title>
	<style>
		.s0 { fill: none;stroke: #ffffff;stroke-linecap: round;stroke-linejoin: round;stroke-width: 5 } 
	</style>
	<path class="s0" d="m2.7 41.4v-32.4c0-2.7 0-4 0.6-4.8 0.5-0.7 1.2-1.2 2.1-1.3 0.9-0.1 2.1 0.5 4.5 1.8l30.4 16.2c2.6 1.4 3.9 2.1 4.3 3 0.4 0.8 0.4 1.8 0 2.6-0.4 0.9-1.7 1.6-4.3 3l-30.4 16.2c-2.4 1.3-3.6 1.9-4.5 1.8-0.9-0.1-1.6-0.6-2.1-1.3-0.6-0.8-0.6-2.1-0.6-4.8z"/>
</svg>