<svg width="50" height="45" viewBox="0 0 50 45" fill="none" xmlns="http://www.w3.org/2000/svg">
<path d="M13.434 40.0613C17.5562 43.363 22.7085 45.1094 27.9887 44.9947C33.2689 44.88 38.3405 42.9114 42.3154 39.4338C46.2903 35.9561 48.9152 31.191 49.7304 25.9729C50.5456 20.7547 49.4991 15.4161 46.7743 10.8918C44.0495 6.36749 39.82 2.94591 34.8263 1.22619C29.8327 -0.493528 24.3932 -0.401788 19.4604 1.48535C14.5276 3.37249 10.4159 6.93474 7.8452 11.5483C5.2745 16.1619 4.40869 21.5328 5.39939 26.7206L7.93274 26.2368C7.0556 21.6437 7.82216 16.8885 10.0982 12.8037C12.3742 8.71896 16.0146 5.56504 20.382 3.89422C24.7494 2.2234 29.5653 2.14217 33.9865 3.66477C38.4078 5.18736 42.1525 8.21672 44.5649 12.2224C46.9774 16.2281 47.9039 20.9548 47.1821 25.5748C46.4604 30.1948 44.1364 34.4137 40.6172 37.4927C37.0979 40.5717 32.6077 42.3146 27.9327 42.4162C23.2578 42.5177 18.6961 40.9715 15.0464 38.0483L13.434 40.0613Z" fill="black"/>
<path d="M27.0881 30.3551C25.8191 30.3551 24.7254 30.0545 23.8068 29.4531C22.8883 28.8471 22.1804 27.9782 21.6832 26.8466C21.1861 25.7102 20.9399 24.3442 20.9446 22.7486C20.9493 21.1529 21.1979 19.7988 21.6903 18.6861C22.1875 17.5687 22.893 16.7187 23.8068 16.1364C24.7254 15.5492 25.8191 15.2557 27.0881 15.2557C28.357 15.2557 29.4508 15.5492 30.3693 16.1364C31.2926 16.7187 32.0028 17.5687 32.5 18.6861C32.9972 19.8035 33.2434 21.1577 33.2386 22.7486C33.2386 24.349 32.9901 25.7173 32.4929 26.8537C31.9957 27.9901 31.2879 28.8589 30.3693 29.4602C29.4555 30.0568 28.3617 30.3551 27.0881 30.3551ZM27.0881 27.4787C27.8456 27.4787 28.4588 27.0928 28.9276 26.321C29.3963 25.5445 29.6283 24.3537 29.6236 22.7486C29.6236 21.6974 29.517 20.831 29.304 20.1491C29.0909 19.4626 28.795 18.9512 28.4162 18.6151C28.0374 18.2789 27.5947 18.1108 27.0881 18.1108C26.3352 18.1108 25.7268 18.492 25.2628 19.2543C24.7988 20.0118 24.5644 21.1766 24.5597 22.7486C24.5549 23.8139 24.6567 24.697 24.8651 25.3977C25.0781 26.0985 25.3764 26.6217 25.7599 26.9673C26.1435 27.3082 26.5862 27.4787 27.0881 27.4787Z" fill="black"/>
<path d="M1 22.1541L6.58012 27.5728L11.4989 22" stroke="black" stroke-width="2" stroke-linecap="round"/>
</svg>
