<svg width="100" height="102" viewBox="0 0 100 102" fill="none" xmlns="http://www.w3.org/2000/svg">
<path d="M87.485 55.935C87.695 54.36 87.8 52.7325 87.8 51C87.8 49.32 87.695 47.64 87.4325 46.065L98.09 37.77C99.035 37.035 99.2975 35.6175 98.72 34.5675L88.64 17.1375C88.01 15.9825 86.6975 15.615 85.5425 15.9825L72.995 21.0225C70.37 19.0275 67.5875 17.3475 64.49 16.0875L62.6 2.75247C62.39 1.49247 61.34 0.599976 60.08 0.599976H39.92C38.66 0.599976 37.6625 1.49247 37.4525 2.75247L35.5625 16.0875C32.465 17.3475 29.63 19.08 27.0575 21.0225L14.51 15.9825C13.355 15.5625 12.0425 15.9825 11.4125 17.1375L1.38497 34.5675C0.754966 35.67 0.964965 37.035 2.01497 37.77L12.6725 46.065C12.41 47.64 12.2 49.3725 12.2 51C12.2 52.6275 12.305 54.36 12.5675 55.935L1.90997 64.23C0.964965 64.965 0.702466 66.3825 1.27997 67.4325L11.36 84.8625C11.99 86.0175 13.3025 86.385 14.4575 86.0175L27.005 80.9775C29.63 82.9725 32.4125 84.6525 35.51 85.9125L37.4 99.2475C37.6625 100.507 38.66 101.4 39.92 101.4H60.08C61.34 101.4 62.39 100.507 62.5475 99.2475L64.4375 85.9125C67.535 84.6525 70.37 82.9725 72.9425 80.9775L85.49 86.0175C86.645 86.4375 87.9575 86.0175 88.5875 84.8625L98.6675 67.4325C99.2975 66.2775 99.035 64.965 98.0375 64.23L87.485 55.935ZM50 69.9C39.605 69.9 31.1 61.395 31.1 51C31.1 40.605 39.605 32.1 50 32.1C60.395 32.1 68.9 40.605 68.9 51C68.9 61.395 60.395 69.9 50 69.9Z" fill="#323232"/>
</svg>
